# xmcd
#
# Track frame offsets:
#	182
#	11962
#	23360
#	40207
#	51755
#	61357
#	70542
#	77360
#	84967
#	99727
#	107410
#	120275
#	128052
#	141835
#	150295
#
# Disc length: 2115 seconds
#
# Revision: 5
# Processed by: cddbd v1.5.1PL2 Copyright (c) Steve Scherf et al.
# Submitted via: dBpowerAMP V4.0
#
DISCID=a708410f
DTITLE=Various Artist - Grammy's Greatest Country Moments Volume 2
DYEAR=1994
DGENRE=Country
TTITLE0=Travis Tritt and Marty Stuart - The Whiskey Ain't Workin'
TTITLE1=Lyle Lovett - She's Hot To Go - She's No Lady
TTITLE2=Billy Ray Cyrus - Achy Breaky Heart
TTITLE3=The Judds - Love Can Build A Bridge
TTITLE4=Roy Acuss and Emmy Lou Harris - Blue Eyes Crying In The Rain
TTITLE5=George Strait - All My Ex's Live In Texas
TTITLE6=K.T. Oslin - 80's Ladies
TTITLE7=Randy Travis - Forever And Ever, Amen
TTITLE8=Kenny Rogers - Through The Years
TTITLE9=Barbara Mandrell - The Best Of Strangers
TTITLE10=Waylon Jennings - I'm A Ramblin' Man
TTITLE11=Kris Kristofferson and Willie Nelson - Me And Bobby McGee
TTITLE12=Charlie Rich - Behind Closed Doors
TTITLE13=Shelly West and David Frizzell - You're The Reason God Made Oklahoma
TTITLE14=Mickey Gilley - Orange Blosson Special
EXTD=
EXTT0=
EXTT1=
EXTT2=
EXTT3=
EXTT4=
EXTT5=
EXTT6=
EXTT7=
EXTT8=
EXTT9=
EXTT10=
EXTT11=
EXTT12=
EXTT13=
EXTT14=
PLAYORDER=
